<svg width="1600" height="1000" viewBox="0 0 1600 1000" fill="none" xmlns="http://www.w3.org/2000/svg">
  <defs>
    <linearGradient id="bg" x1="0" y1="0" x2="1600" y2="1000" gradientUnits="userSpaceOnUse">
      <stop stop-color="#0A0D12"/>
      <stop offset="0.6" stop-color="#111A24"/>
      <stop offset="1" stop-color="#18343A"/>
    </linearGradient>
    <linearGradient id="wire" x1="200" y1="140" x2="1320" y2="860" gradientUnits="userSpaceOnUse">
      <stop stop-color="#7EF2E6"/>
      <stop offset="1" stop-color="#44AFA6"/>
    </linearGradient>
    <filter id="glow" x="-50%" y="-50%" width="200%" height="200%">
      <feGaussianBlur stdDeviation="4" result="blur"/>
      <feMerge>
        <feMergeNode in="blur"/>
        <feMergeNode in="SourceGraphic"/>
      </feMerge>
    </filter>
  </defs>

  <rect width="1600" height="1000" fill="url(#bg)"/>

  <g opacity="0.18" stroke="#8CF4EA" stroke-width="1">
    <path d="M0 120H1600"/>
    <path d="M0 240H1600"/>
    <path d="M0 360H1600"/>
    <path d="M0 480H1600"/>
    <path d="M0 600H1600"/>
    <path d="M0 720H1600"/>
    <path d="M0 840H1600"/>
    <path d="M160 0V1000"/>
    <path d="M320 0V1000"/>
    <path d="M480 0V1000"/>
    <path d="M640 0V1000"/>
    <path d="M800 0V1000"/>
    <path d="M960 0V1000"/>
    <path d="M1120 0V1000"/>
    <path d="M1280 0V1000"/>
    <path d="M1440 0V1000"/>
  </g>

  <g stroke="url(#wire)" stroke-width="3" fill="none" filter="url(#glow)">
    <path d="M120 180H360V280H600V220H860V360H1120V300H1440"/>
    <path d="M180 520H420V430H700V620H980V520H1360"/>
    <path d="M120 820H300V700H560V840H780V760H1040V900H1500"/>
    <path d="M930 140V260H1240V120"/>
    <path d="M520 600V760H360V920"/>
  </g>

  <g fill="#A5FFF5" filter="url(#glow)">
    <circle cx="360" cy="280" r="8"/>
    <circle cx="600" cy="220" r="8"/>
    <circle cx="860" cy="360" r="8"/>
    <circle cx="1120" cy="300" r="8"/>
    <circle cx="420" cy="430" r="8"/>
    <circle cx="700" cy="620" r="8"/>
    <circle cx="980" cy="520" r="8"/>
    <circle cx="560" cy="840" r="8"/>
    <circle cx="780" cy="760" r="8"/>
    <circle cx="1040" cy="900" r="8"/>
    <circle cx="1240" cy="260" r="8"/>
  </g>

  <g opacity="0.45" stroke="#B8FFF8" stroke-width="2">
    <rect x="160" y="130" width="220" height="90" rx="14"/>
    <rect x="1210" y="120" width="240" height="110" rx="14"/>
    <rect x="1020" y="650" width="260" height="120" rx="14"/>
    <rect x="250" y="650" width="240" height="120" rx="14"/>
  </g>
</svg>
