<svg width="1600" height="1000" viewBox="0 0 1600 1000" fill="none" xmlns="http://www.w3.org/2000/svg">
  <defs>
    <linearGradient id="bg" x1="0" y1="0" x2="1600" y2="1000" gradientUnits="userSpaceOnUse">
      <stop stop-color="#0A1224"/>
      <stop offset="0.45" stop-color="#132845"/>
      <stop offset="1" stop-color="#224B67"/>
    </linearGradient>
    <linearGradient id="board" x1="240" y1="170" x2="1360" y2="830" gradientUnits="userSpaceOnUse">
      <stop stop-color="#EFFCF8" stop-opacity="0.12"/>
      <stop offset="1" stop-color="#D7F4FF" stop-opacity="0.08"/>
    </linearGradient>
    <linearGradient id="boardStroke" x1="0" y1="0" x2="1" y2="1">
      <stop stop-color="#D1FAE5" stop-opacity="0.8"/>
      <stop offset="1" stop-color="#BAE6FD" stop-opacity="0.25"/>
    </linearGradient>
    <filter id="shadow" x="-20%" y="-20%" width="140%" height="140%">
      <feDropShadow dx="0" dy="10" stdDeviation="12" flood-color="#020617" flood-opacity="0.45"/>
    </filter>
    <filter id="pinGlow" x="-50%" y="-50%" width="200%" height="200%">
      <feGaussianBlur stdDeviation="3"/>
    </filter>
  </defs>

  <rect width="1600" height="1000" fill="url(#bg)"/>
  <g opacity="0.15">
    <path d="M0 840H1600" stroke="#93C5FD" stroke-width="2"/>
    <path d="M0 760H1600" stroke="#93C5FD" stroke-width="2"/>
    <path d="M0 680H1600" stroke="#93C5FD" stroke-width="2"/>
    <path d="M0 600H1600" stroke="#93C5FD" stroke-width="2"/>
  </g>

  <rect x="210" y="170" width="1180" height="660" rx="38" fill="url(#board)"/>
  <rect x="211.5" y="171.5" width="1177" height="657" rx="36.5" stroke="url(#boardStroke)" stroke-width="3"/>

  <g filter="url(#shadow)">
    <rect x="300" y="248" width="300" height="210" rx="22" transform="rotate(-5 300 248)" fill="#FAF5FF"/>
    <rect x="301.5" y="249.5" width="297" height="207" rx="20.5" transform="rotate(-5 301.5 249.5)" stroke="#C4B5FD" stroke-opacity="0.6" stroke-width="3"/>
    <circle cx="452" cy="242" r="13" fill="#A78BFA"/>
    <circle cx="452" cy="242" r="19" fill="#A78BFA" fill-opacity="0.22" filter="url(#pinGlow)"/>
    <rect x="345" y="302" width="210" height="8" rx="4" transform="rotate(-5 345 302)" fill="#DDD6FE"/>
    <rect x="345" y="328" width="170" height="8" rx="4" transform="rotate(-5 345 328)" fill="#E9D5FF"/>
    <rect x="345" y="354" width="190" height="8" rx="4" transform="rotate(-5 345 354)" fill="#DDD6FE"/>
    <rect x="345" y="380" width="145" height="8" rx="4" transform="rotate(-5 345 380)" fill="#E9D5FF"/>
  </g>

  <g filter="url(#shadow)">
    <rect x="684" y="220" width="380" height="270" rx="22" fill="#F8FAFC"/>
    <rect x="686" y="222" width="376" height="266" rx="20" stroke="#A5F3FC" stroke-opacity="0.55" stroke-width="4"/>
    <circle cx="874" cy="206" r="14" fill="#22D3EE"/>
    <circle cx="874" cy="206" r="20" fill="#22D3EE" fill-opacity="0.25" filter="url(#pinGlow)"/>
    <rect x="712" y="250" width="324" height="96" rx="14" fill="#0F172A"/>
    <rect x="712" y="356" width="150" height="16" rx="8" fill="#BAE6FD"/>
    <rect x="712" y="382" width="220" height="16" rx="8" fill="#CFFAFE"/>
    <rect x="712" y="408" width="184" height="16" rx="8" fill="#BAE6FD"/>
  </g>

  <g filter="url(#shadow)">
    <rect x="1110" y="286" width="220" height="180" rx="22" transform="rotate(7 1110 286)" fill="#ECFEFF"/>
    <rect x="1112" y="288" width="216" height="176" rx="20" transform="rotate(7 1112 288)" stroke="#67E8F9" stroke-opacity="0.6" stroke-width="3"/>
    <circle cx="1228" cy="278" r="11" fill="#06B6D4"/>
    <rect x="1142" y="336" width="145" height="10" rx="5" transform="rotate(7 1142 336)" fill="#A5F3FC"/>
    <rect x="1142" y="365" width="120" height="10" rx="5" transform="rotate(7 1142 365)" fill="#67E8F9"/>
  </g>

  <g filter="url(#shadow)">
    <rect x="400" y="550" width="330" height="220" rx="20" fill="#0B2239"/>
    <rect x="402" y="552" width="326" height="216" rx="18" stroke="#67E8F9" stroke-opacity="0.5" stroke-width="3"/>
    <circle cx="566" cy="536" r="12" fill="#2DD4BF"/>
    <circle cx="566" cy="536" r="18" fill="#2DD4BF" fill-opacity="0.2" filter="url(#pinGlow)"/>
    <rect x="432" y="584" width="266" height="12" rx="6" fill="#99F6E4" fill-opacity="0.8"/>
    <rect x="432" y="610" width="238" height="12" rx="6" fill="#99F6E4" fill-opacity="0.72"/>
    <rect x="432" y="636" width="206" height="12" rx="6" fill="#99F6E4" fill-opacity="0.64"/>
    <rect x="432" y="662" width="248" height="12" rx="6" fill="#99F6E4" fill-opacity="0.58"/>
  </g>

  <g filter="url(#shadow)">
    <rect x="822" y="578" width="460" height="190" rx="22" fill="#FEFCE8"/>
    <rect x="824" y="580" width="456" height="186" rx="20" stroke="#FDE68A" stroke-opacity="0.7" stroke-width="3"/>
    <circle cx="1048" cy="564" r="12" fill="#FBBF24"/>
    <rect x="860" y="624" width="384" height="10" rx="5" fill="#FDE68A"/>
    <rect x="860" y="650" width="334" height="10" rx="5" fill="#FDE68A"/>
    <rect x="860" y="676" width="360" height="10" rx="5" fill="#FCD34D"/>
    <rect x="860" y="702" width="280" height="10" rx="5" fill="#FDE68A"/>
  </g>

  <g opacity="0.85">
    <circle cx="286" cy="826" r="9" fill="#5EEAD4"/>
    <circle cx="1322" cy="198" r="8" fill="#A5F3FC"/>
    <circle cx="1360" cy="792" r="10" fill="#67E8F9"/>
    <path d="M740 508L752 532L778 536L760 553L764 579L740 566L716 579L720 553L702 536L728 532L740 508Z" fill="#99F6E4"/>
  </g>
</svg>
